#Comment line ignore any data following # character 
#Hierarchical Translation and Rotation (.htr) file 
[Header]	
#Header keywords are followed by a single value 
FileType HTR		#Single word string
DataType HTRS		#Translation followed by rotation and scale data
FileVersion 1		#integer
NumSegments 84		#integer
NumFrames 2		#integer
DataFrameRate 30		#integer, data frame rate in this file
EulerRotationOrder ZYX
CalibrationUnits mm
RotationUnits Degrees
GlobalAxisofGravity Y
BoneLengthAxis Y
ScaleFactor 1.00
[SegmentNames&Hierarchy]
#CHILD	PARENT
MASTER GLOBAL
root MASTER
chest root
L_mid_tent01 root
R_mid_tent01 root
spine01 root
Bip01_Neck chest
L_humerus chest
R_humerus chest
weapon_bone chest
Bip01_Head Bip01_Neck
eye_left_bone Bip01_Head
eye_right_bone Bip01_Head
L_forearm L_humerus
L_front_hand L_forearm
L_weapon_bone L_forearm
L_front_hand01_01 L_front_hand
L_front_hand02_01 L_front_hand
L_front_hand03_01 L_front_hand
L_front_hand01_02 L_front_hand01_01
L_front_hand02_02 L_front_hand02_01
L_front_hand03_02 L_front_hand03_01
R_forearm R_humerus
R_front_hand R_forearm
R_weapon_bone R_forearm
R_front_hand01_01 R_front_hand
R_front_hand02_01 R_front_hand
R_front_hand03_01 R_front_hand
R_front_hand01_02 R_front_hand01_01
R_front_hand02_02 R_front_hand02_01
R_front_hand03_02 R_front_hand03_01
null_rope01_connect L_mid_tent01
Rope1_Seg01 null_rope01_connect
Rope1_Seg02 Rope1_Seg01
Rope1_Seg03 Rope1_Seg02
Rope1_Seg04 Rope1_Seg03
Rope1_Seg05 Rope1_Seg04
Rope1_Seg06 Rope1_Seg05
Rope1_Seg07 Rope1_Seg06
Rope1_Seg09 Rope1_Seg07
L_mid_hand01 Rope1_Seg09
L_mid_hand02 Rope1_Seg09
L_mid_hand03 Rope1_Seg09
null_rope02_connect R_mid_tent01
Rope2_Seg01 null_rope02_connect
Rope2_Seg02 Rope2_Seg01
Rope2_Seg03 Rope2_Seg02
Rope2_Seg04 Rope2_Seg03
Rope2_Seg05 Rope2_Seg04
Rope2_Seg06 Rope2_Seg05
Rope2_Seg07 Rope2_Seg06
Rope2_Seg09 Rope2_Seg07
R_mid_hand01 Rope2_Seg09
R_mid_hand02 Rope2_Seg09
R_mid_hand03 Rope2_Seg09
spine02 spine01
spine03 spine02
pelvis spine03
null_rope03_connect pelvis
null_rope04_connect pelvis
Rope3_Seg01 null_rope03_connect
Rope3_Seg02 Rope3_Seg01
Rope3_Seg03 Rope3_Seg02
Rope3_Seg04 Rope3_Seg03
Rope3_Seg05 Rope3_Seg04
Rope3_Seg06 Rope3_Seg05
Rope3_Seg07 Rope3_Seg06
Rope3_Seg08 Rope3_Seg07
Rope3_Seg09 Rope3_Seg08
R_rear_hand01 Rope3_Seg09
R_rear_hand02 Rope3_Seg09
R_rear_hand03 Rope3_Seg09
Rope4_Seg01 null_rope04_connect
Rope4_Seg02 Rope4_Seg01
Rope4_Seg03 Rope4_Seg02
Rope4_Seg04 Rope4_Seg03
Rope4_Seg05 Rope4_Seg04
Rope4_Seg06 Rope4_Seg05
Rope4_Seg07 Rope4_Seg06
Rope4_Seg08 Rope4_Seg07
Rope4_Seg09 Rope4_Seg08
L_rear_hand01 Rope4_Seg09
L_rear_hand02 Rope4_Seg09
L_rear_hand03 Rope4_Seg09
[BasePosition]
#SegmentName Tx, Ty, Tz, Rx, Ry, Rz, BoneLength
MASTER 0.000000 0.000000 0.000000 -90.000000 0.000000 0.000000 10.000000 
root 0.000000 0.000000 0.000000 0.000000 0.000000 0.000000 10.000000 
chest 0.000000 0.000000 0.000000 0.000000 0.000000 0.000000 10.000000 
L_mid_tent01 0.000000 0.000000 0.000000 0.000000 0.000000 0.000000 10.000000 
R_mid_tent01 0.000000 0.000000 0.000000 0.000000 0.000000 0.000000 10.000000 
spine01 0.000000 0.000000 0.000000 0.000000 0.000000 0.000000 10.000000 
Bip01_Neck 0.000000 0.000000 0.000000 0.000000 0.000000 0.000000 10.000000 
L_humerus 0.000000 0.000000 0.000000 0.000000 0.000000 0.000000 10.000000 
R_humerus 0.000000 0.000000 0.000000 0.000000 0.000000 0.000000 10.000000 
weapon_bone 0.000000 0.000000 0.000000 0.000000 0.000000 0.000000 10.000000 
Bip01_Head 0.000000 0.000000 0.000000 0.000000 0.000000 0.000000 10.000000 
eye_left_bone 0.000000 0.000000 0.000000 0.000000 0.000000 0.000000 10.000000 
eye_right_bone 0.000000 0.000000 0.000000 0.000000 0.000000 0.000000 10.000000 
L_forearm 0.000000 0.000000 0.000000 0.000000 0.000000 0.000000 10.000000 
L_front_hand 0.000000 0.000000 0.000000 0.000000 0.000000 0.000000 10.000000 
L_weapon_bone 0.000000 0.000000 0.000000 0.000000 0.000000 0.000000 10.000000 
L_front_hand01_01 0.000000 0.000000 0.000000 0.000000 0.000000 0.000000 10.000000 
L_front_hand02_01 0.000000 0.000000 0.000000 0.000000 0.000000 0.000000 10.000000 
L_front_hand03_01 0.000000 0.000000 0.000000 0.000000 0.000000 0.000000 10.000000 
L_front_hand01_02 0.000000 0.000000 0.000000 0.000000 0.000000 0.000000 10.000000 
L_front_hand02_02 0.000000 0.000000 0.000000 0.000000 0.000000 0.000000 10.000000 
L_front_hand03_02 0.000000 0.000000 0.000000 0.000000 0.000000 0.000000 10.000000 
R_forearm 0.000000 0.000000 0.000000 0.000000 0.000000 0.000000 10.000000 
R_front_hand 0.000000 0.000000 0.000000 0.000000 0.000000 0.000000 10.000000 
R_weapon_bone 0.000000 0.000000 0.000000 0.000000 0.000000 0.000000 10.000000 
R_front_hand01_01 0.000000 0.000000 0.000000 0.000000 0.000000 0.000000 10.000000 
R_front_hand02_01 0.000000 0.000000 0.000000 0.000000 0.000000 0.000000 10.000000 
R_front_hand03_01 0.000000 0.000000 0.000000 0.000000 0.000000 0.000000 10.000000 
R_front_hand01_02 0.000000 0.000000 0.000000 0.000000 0.000000 0.000000 10.000000 
R_front_hand02_02 0.000000 0.000000 0.000000 0.000000 0.000000 0.000000 10.000000 
R_front_hand03_02 0.000000 0.000000 0.000000 0.000000 0.000000 0.000000 10.000000 
null_rope01_connect 0.000000 0.000000 0.000000 0.000000 0.000000 0.000000 10.000000 
Rope1_Seg01 0.000000 0.000000 0.000000 0.000000 0.000000 0.000000 10.000000 
Rope1_Seg02 0.000000 0.000000 0.000000 0.000000 0.000000 0.000000 10.000000 
Rope1_Seg03 0.000000 0.000000 0.000000 0.000000 0.000000 0.000000 10.000000 
Rope1_Seg04 0.000000 0.000000 0.000000 0.000000 0.000000 0.000000 10.000000 
Rope1_Seg05 0.000000 0.000000 0.000000 0.000000 0.000000 0.000000 10.000000 
Rope1_Seg06 0.000000 0.000000 0.000000 0.000000 0.000000 0.000000 10.000000 
Rope1_Seg07 0.000000 0.000000 0.000000 0.000000 0.000000 0.000000 10.000000 
Rope1_Seg09 0.000000 0.000000 0.000000 0.000000 0.000000 0.000000 10.000000 
L_mid_hand01 0.000000 0.000000 0.000000 0.000000 0.000000 0.000000 10.000000 
L_mid_hand02 0.000000 0.000000 0.000000 0.000000 0.000000 0.000000 10.000000 
L_mid_hand03 0.000000 0.000000 0.000000 0.000000 0.000000 0.000000 10.000000 
null_rope02_connect 0.000000 0.000000 0.000000 0.000000 0.000000 0.000000 10.000000 
Rope2_Seg01 0.000000 0.000000 0.000000 0.000000 0.000000 0.000000 10.000000 
Rope2_Seg02 0.000000 0.000000 0.000000 0.000000 0.000000 0.000000 10.000000 
Rope2_Seg03 0.000000 0.000000 0.000000 0.000000 0.000000 0.000000 10.000000 
Rope2_Seg04 0.000000 0.000000 0.000000 0.000000 0.000000 0.000000 10.000000 
Rope2_Seg05 0.000000 0.000000 0.000000 0.000000 0.000000 0.000000 10.000000 
Rope2_Seg06 0.000000 0.000000 0.000000 0.000000 0.000000 0.000000 10.000000 
Rope2_Seg07 0.000000 0.000000 0.000000 0.000000 0.000000 0.000000 10.000000 
Rope2_Seg09 0.000000 0.000000 0.000000 0.000000 0.000000 0.000000 10.000000 
R_mid_hand01 0.000000 0.000000 0.000000 0.000000 0.000000 0.000000 10.000000 
R_mid_hand02 0.000000 0.000000 0.000000 0.000000 0.000000 0.000000 10.000000 
R_mid_hand03 0.000000 0.000000 0.000000 0.000000 0.000000 0.000000 10.000000 
spine02 0.000000 0.000000 0.000000 0.000000 0.000000 0.000000 10.000000 
spine03 0.000000 0.000000 0.000000 0.000000 0.000000 0.000000 10.000000 
pelvis 0.000000 0.000000 0.000000 0.000000 0.000000 0.000000 10.000000 
null_rope03_connect 0.000000 0.000000 0.000000 0.000000 0.000000 0.000000 10.000000 
null_rope04_connect 0.000000 0.000000 0.000000 0.000000 0.000000 0.000000 10.000000 
Rope3_Seg01 0.000000 0.000000 0.000000 0.000000 0.000000 0.000000 10.000000 
Rope3_Seg02 0.000000 0.000000 0.000000 0.000000 0.000000 0.000000 10.000000 
Rope3_Seg03 0.000000 0.000000 0.000000 0.000000 0.000000 0.000000 10.000000 
Rope3_Seg04 0.000000 0.000000 0.000000 0.000000 0.000000 0.000000 10.000000 
Rope3_Seg05 0.000000 0.000000 0.000000 0.000000 0.000000 0.000000 10.000000 
Rope3_Seg06 0.000000 0.000000 0.000000 0.000000 0.000000 0.000000 10.000000 
Rope3_Seg07 0.000000 0.000000 0.000000 0.000000 0.000000 0.000000 10.000000 
Rope3_Seg08 0.000000 0.000000 0.000000 0.000000 0.000000 0.000000 10.000000 
Rope3_Seg09 0.000000 0.000000 0.000000 0.000000 0.000000 0.000000 10.000000 
R_rear_hand01 0.000000 0.000000 0.000000 0.000000 0.000000 0.000000 10.000000 
R_rear_hand02 0.000000 0.000000 0.000000 0.000000 0.000000 0.000000 10.000000 
R_rear_hand03 0.000000 0.000000 0.000000 0.000000 0.000000 0.000000 10.000000 
Rope4_Seg01 0.000000 0.000000 0.000000 0.000000 0.000000 0.000000 10.000000 
Rope4_Seg02 0.000000 0.000000 0.000000 0.000000 0.000000 0.000000 10.000000 
Rope4_Seg03 0.000000 0.000000 0.000000 0.000000 0.000000 0.000000 10.000000 
Rope4_Seg04 0.000000 0.000000 0.000000 0.000000 0.000000 0.000000 10.000000 
Rope4_Seg05 0.000000 0.000000 0.000000 0.000000 0.000000 0.000000 10.000000 
Rope4_Seg06 0.000000 0.000000 0.000000 0.000000 0.000000 0.000000 10.000000 
Rope4_Seg07 0.000000 0.000000 0.000000 0.000000 0.000000 0.000000 10.000000 
Rope4_Seg08 0.000000 0.000000 0.000000 0.000000 0.000000 0.000000 10.000000 
Rope4_Seg09 0.000000 0.000000 0.000000 0.000000 0.000000 0.000000 10.000000 
L_rear_hand01 0.000000 0.000000 0.000000 0.000000 0.000000 0.000000 10.000000 
L_rear_hand02 0.000000 0.000000 0.000000 0.000000 0.000000 0.000000 10.000000 
L_rear_hand03 0.000000 0.000000 0.000000 0.000000 0.000000 0.000000 10.000000 
#Beginning of Data. Separated by tabs
#Fr	Tx	Ty	Tz	Rx	Ry	Rz	SF
[MASTER]
17 0.000000 0.000000 0.000000 0.001660 0.001660 0.001660 0.000000
18 0.000000 0.000000 0.000000 0.001660 0.001660 0.001660 0.000000
[root]
17 -29.991713 -55.614719 1448.845825 -62.627377 -8.174918 -101.472092 1450.223022
18 -27.901110 -56.731735 1304.623413 -64.941154 -9.698936 -100.497742 1306.154297
[chest]
17 -84.512650 -34.090519 0.000000 1.304416 -0.435550 158.203583 91.129311
18 -84.512650 -34.090519 0.000000 0.714828 -0.939741 164.913315 91.129311
[L_mid_tent01]
17 27.299175 22.178902 -249.918564 3.785921 12.874230 81.452232 252.381531
18 27.299170 22.178919 -249.918579 4.641299 8.786102 82.425583 252.381546
[R_mid_tent01]
17 23.228794 24.509907 226.238495 163.033203 -18.271267 80.926445 228.744751
18 23.228794 24.509907 226.238495 164.226883 -4.936835 76.419678 228.744751
[spine01]
17 -0.361383 -0.195265 0.000000 0.002062 0.001122 32.879829 0.410763
18 -0.361383 -0.195265 0.000000 0.002062 0.001122 32.879829 0.410763
[Bip01_Neck]
17 165.484543 71.581718 0.000119 176.643677 -1.657967 43.431911 180.302734
18 165.484543 71.581718 0.000119 176.643677 -1.657967 43.431911 180.302734
[L_humerus]
17 -13.983130 -135.272980 -120.471481 161.052307 24.782558 -65.992821 181.680161
18 -13.983130 -135.272980 -120.471481 162.769058 21.894840 -66.003830 181.680161
[R_humerus]
17 -13.983309 -135.273102 125.287651 -176.609528 -9.877853 -87.010010 184.909012
18 -13.983309 -135.273102 125.287651 -176.955414 -11.787668 -86.163353 184.909012
[weapon_bone]
17 235.964890 -300.705902 0.000000 0.000000 -89.951546 -128.212341 382.234833
18 235.964890 -300.705902 0.000000 0.000000 -89.951546 -128.212341 382.234833
[Bip01_Head]
17 213.611526 185.250473 17.782118 24.318602 5.173704 -43.863869 283.308716
18 213.495483 185.573502 13.612174 11.736368 8.422843 -43.797974 283.201599
[eye_left_bone]
17 -24.626970 125.451866 -64.772606 0.000000 -90.000000 -99.840431 143.318359
18 -24.626970 125.451866 -64.772606 0.000000 -90.000000 -99.840431 143.318359
[eye_right_bone]
17 -24.626970 125.451866 64.327362 0.000000 -89.965736 80.156380 143.117676
18 -24.626970 125.451866 64.327362 0.000000 -89.965736 80.156380 143.117676
[L_forearm]
17 322.776093 0.000000 -0.000119 0.000113 -0.002345 -95.507172 322.776093
18 322.776093 0.000000 -0.000119 0.000111 -0.002345 -95.426971 322.776093
[L_front_hand]
17 241.149185 -0.042021 -3.300071 -178.649933 -1.821242 -28.023649 241.171753
18 241.149185 -0.042021 -3.300071 -178.652069 -1.828500 -27.814756 241.171753
[L_weapon_bone]
17 156.183838 0.000000 0.000000 0.000014 0.000007 0.000001 156.183838
18 156.183838 0.000000 0.000000 0.000014 0.000007 0.000001 156.183838
[L_front_hand01_01]
17 86.095154 20.947098 -0.655860 -0.366594 -0.477154 75.385574 88.609184
18 86.095154 20.947098 -0.655860 -0.366594 -0.477154 75.385574 88.609184
[L_front_hand02_01]
17 86.935165 -11.437475 24.513514 154.399796 -59.883835 -61.369587 91.046425
18 86.935165 -11.437475 24.513514 154.399796 -59.883835 -61.369587 91.046425
[L_front_hand03_01]
17 86.637497 -14.123976 -20.424902 -153.913864 58.118130 -62.702873 90.126129
18 86.637497 -14.123976 -20.424902 -153.913849 58.118122 -62.702850 90.126129
[L_front_hand01_02]
17 71.020905 -0.000179 0.000030 0.000334 -0.002323 -106.342621 71.020905
18 71.020905 -0.000179 0.000030 0.000334 -0.002323 -106.354980 71.020905
[L_front_hand02_02]
17 71.020927 -0.000119 0.000060 0.000334 -0.002323 -106.342621 71.020927
18 71.020927 -0.000119 0.000060 0.000334 -0.002323 -106.354980 71.020927
[L_front_hand03_02]
17 71.020905 -0.000060 0.000060 0.000334 -0.002323 -106.342621 71.020905
18 71.020905 -0.000060 0.000060 0.000334 -0.002323 -106.354980 71.020905
[R_forearm]
17 322.776428 -0.000060 0.000030 0.213159 0.008533 -93.967583 322.776428
18 322.776428 -0.000060 0.000030 0.213163 0.008433 -93.913460 322.776428
[R_front_hand]
17 238.847015 -0.006795 2.210259 -2.504097 -10.676397 -27.023926 238.857239
18 238.847015 -0.006795 2.210259 -2.548515 -10.666063 -26.779783 238.857239
[R_weapon_bone]
17 155.664093 0.002503 -0.000030 0.003487 0.001180 -90.988930 155.664078
18 155.664093 0.002503 -0.000030 0.003487 0.001180 -90.988930 155.664078
[R_front_hand01_01]
17 87.624611 14.231146 22.918642 -154.633484 -59.950607 61.746033 91.683487
18 87.624611 14.231146 22.918642 -154.633499 -59.950619 61.746044 91.683487
[R_front_hand02_01]
17 89.356956 14.367283 -19.491137 154.602676 58.302864 63.744400 92.579636
18 89.356956 14.367283 -19.491137 154.602661 58.302849 63.744389 92.579636
[R_front_hand03_01]
17 87.286232 -22.307278 -0.143439 0.162155 -0.423168 -75.767906 90.091743
18 87.286232 -22.307278 -0.143439 0.162155 -0.423168 -75.767921 90.091743
[R_front_hand01_02]
17 71.020905 0.000060 0.000119 0.002323 -0.000334 106.381714 71.020905
18 71.020905 0.000060 0.000119 0.002323 -0.000334 106.381714 71.020905
[R_front_hand02_02]
17 71.020844 -0.000030 -0.000119 0.002323 -0.000334 106.381714 71.020836
18 71.020844 -0.000030 -0.000119 0.002323 -0.000334 106.381714 71.020836
[R_front_hand03_02]
17 71.020905 0.000000 0.000030 0.002323 -0.000334 106.381714 71.020905
18 71.020905 0.000000 0.000030 0.002323 -0.000334 106.381714 71.020905
[null_rope01_connect]
17 328.732483 0.000000 -0.000238 -42.592396 -68.314079 59.987885 328.732483
18 328.732483 0.000000 -0.000238 -36.304771 -67.926285 54.299496 328.732483
[Rope1_Seg01]
17 -0.000038 -0.000114 0.000106 116.934998 58.286777 140.086517 0.000161
18 -0.000038 -0.000114 0.000107 121.612587 44.333370 152.118729 0.000161
[Rope1_Seg02]
17 139.999863 -0.000179 0.000000 1.540460 -16.203554 1.860817 139.999863
18 139.999863 -0.000179 0.000000 1.744978 -12.685422 1.778565 139.999863
[Rope1_Seg03]
17 139.999924 0.000060 -0.000060 -1.234019 -18.892242 2.333041 139.999924
18 139.999924 0.000060 -0.000060 -0.160692 -18.397388 2.673285 139.999924
[Rope1_Seg04]
17 139.999924 -0.000060 -0.000119 -3.589065 -15.902923 1.997031 139.999924
18 139.999924 -0.000060 -0.000119 -3.772024 -19.832954 3.424462 139.999924
[Rope1_Seg05]
17 139.999832 0.000119 -0.000060 -2.154769 -7.569438 2.618148 139.999832
18 139.999832 0.000119 -0.000060 -0.456941 -4.452161 4.024356 139.999832
[Rope1_Seg06]
17 139.999954 0.000119 -0.000060 -1.628188 -4.847103 1.778606 139.999954
18 139.999954 0.000119 -0.000060 -0.133386 -2.271270 2.319498 139.999954
[Rope1_Seg07]
17 139.999985 0.000060 0.000000 -1.660125 -3.770333 0.872879 139.999985
18 139.999985 0.000060 0.000000 -0.488492 -2.178998 1.321832 139.999985
[Rope1_Seg09]
17 121.602913 0.000119 -0.000089 -89.793175 -1.359789 0.847147 121.602913
18 121.602913 0.000119 -0.000089 -89.793175 -1.359789 0.847147 121.602913
[L_mid_hand01]
17 103.859421 1.038730 8.195221 130.544373 -67.584534 -38.866943 104.187431
18 103.859421 1.038730 8.195221 130.544373 -67.584534 -38.866943 104.187431
[L_mid_hand02]
17 105.572853 -4.139662 -10.864139 -168.923172 43.409309 -73.498886 106.211075
18 105.572853 -4.139662 -10.864139 -168.923172 43.409309 -73.498886 106.211075
[L_mid_hand03]
17 104.641464 17.579376 -3.913581 -6.012627 17.808174 74.893669 106.179977
18 104.641464 17.579376 -3.913581 -6.012627 17.808174 74.893669 106.179977
[null_rope02_connect]
17 328.732849 0.000179 -0.000119 -154.684402 49.627449 -3.630475 328.732849
18 328.732849 0.000179 -0.000119 -152.930450 65.632973 -2.625122 328.732849
[Rope2_Seg01]
17 0.000029 0.000107 0.000000 -36.897007 -2.982185 0.777799 0.000111
18 0.000036 0.000108 0.000000 -39.052761 -8.799496 14.182554 0.000113
[Rope2_Seg02]
17 139.999741 -0.000060 -0.000119 -4.719824 1.594673 5.224784 139.999756
18 139.999741 -0.000060 -0.000119 -1.109285 3.175244 0.797204 139.999756
[Rope2_Seg03]
17 140.000107 0.000030 0.000000 -3.161405 0.573176 3.845717 140.000107
18 140.000107 0.000030 0.000000 -1.689156 4.174377 1.137897 140.000107
[Rope2_Seg04]
17 139.999802 0.000000 -0.000060 1.515602 -1.211051 -1.434016 139.999802
18 139.999802 0.000000 -0.000060 0.845627 5.098130 -3.738772 139.999802
[Rope2_Seg05]
17 139.999985 -0.000060 0.000119 -13.367630 5.302386 18.631794 139.999985
18 139.999985 -0.000060 0.000119 -2.220911 7.422088 -1.024757 139.999985
[Rope2_Seg06]
17 139.999893 -0.000030 -0.000119 -15.196662 1.776135 37.235928 139.999893
18 139.999893 -0.000030 -0.000119 -28.786711 13.622878 40.946476 139.999893
[Rope2_Seg07]
17 139.999893 0.000060 -0.000060 -2.829969 -3.519016 15.218749 139.999893
18 139.999893 0.000060 -0.000060 -9.392769 -6.995700 26.597509 139.999893
[Rope2_Seg09]
17 121.338966 0.000089 -0.000060 33.793236 -1.359788 -0.847141 121.338966
18 121.338966 0.000089 -0.000060 33.793236 -1.359788 -0.847141 121.338966
[R_mid_hand01]
17 104.680779 11.144459 -10.335981 -16.212063 45.237247 70.462852 105.778534
18 104.680779 11.144459 -10.335981 -16.212063 45.237247 70.462852 105.778534
[R_mid_hand02]
17 104.070427 2.443552 8.231699 49.067368 -67.749771 39.286453 104.424065
18 104.070427 2.443552 8.231699 49.067368 -67.749771 39.286453 104.424065
[R_mid_hand03]
17 106.028137 -11.221827 -5.996406 -177.101105 15.551026 -76.585571 106.788818
18 106.028137 -11.221827 -5.996406 -177.101105 15.551026 -76.585571 106.788818
[spine02]
17 129.756927 0.001550 0.000119 -1.123871 -3.935089 8.197905 129.756927
18 129.756927 0.001550 0.000119 -1.105434 -3.928130 7.968970 129.756927
[spine03]
17 78.613907 0.082661 -4.898923 0.976115 4.222072 3.331810 78.766441
18 78.613914 0.082582 -4.898929 0.985402 4.198496 3.468085 78.766457
[pelvis]
17 169.435242 0.051022 0.000000 0.024721 -0.164780 -12.521034 169.435257
18 169.435242 0.051022 0.000000 0.025353 -0.174676 -12.227531 169.435257
[null_rope03_connect]
17 -1.257226 -2.466202 137.391083 -14.009350 -62.461288 83.142311 137.418976
18 -1.257226 -2.466202 137.391083 -12.895393 -65.049469 82.881622 137.418976
[null_rope04_connect]
17 -1.259640 -2.480268 -137.844437 -14.009350 -62.461288 83.142311 137.872513
18 -1.259640 -2.480268 -137.844437 -12.895393 -65.049469 82.881622 137.872513
[Rope3_Seg01]
17 -0.000016 0.000004 0.000137 -139.708862 -45.466824 -71.296196 0.000138
18 -0.000017 0.000007 0.000126 -141.533203 -42.065887 -66.993057 0.000128
[Rope3_Seg02]
17 139.999924 -0.000119 0.000060 -0.779522 -0.346124 -5.270097 139.999924
18 139.999924 -0.000119 0.000060 -1.968812 1.580998 -6.702631 139.999924
[Rope3_Seg03]
17 139.999924 -0.000119 0.000119 -1.847450 -0.898490 -9.035434 139.999924
18 139.999924 -0.000119 0.000119 -5.709004 3.715299 -12.509240 139.999924
[Rope3_Seg04]
17 139.999924 0.000119 0.000000 -6.721694 -2.740643 -19.382784 139.999924
18 139.999924 0.000119 0.000000 -19.588049 10.973125 -22.829605 139.999924
[Rope3_Seg05]
17 139.999924 -0.000238 0.000060 -87.003258 17.353809 -62.416920 139.999924
18 139.999924 -0.000238 0.000060 -70.623756 23.698107 -55.951641 139.999924
[Rope3_Seg06]
17 139.999893 -0.000119 -0.000060 -8.394866 15.701018 1.810822 139.999893
18 139.999893 -0.000119 -0.000060 -10.159925 16.831448 -1.751241 139.999893
[Rope3_Seg07]
17 139.999771 0.000060 -0.000119 -1.620075 5.374356 1.317058 139.999771
18 139.999771 0.000060 -0.000119 -1.850388 5.627831 0.604031 139.999771
[Rope3_Seg08]
17 139.999985 -0.000060 0.000000 -0.343686 2.560974 0.706339 139.999985
18 139.999985 -0.000060 0.000000 -0.449411 2.703786 0.381874 139.999985
[Rope3_Seg09]
17 90.185997 -0.000179 -0.000060 89.793228 -1.359877 -0.847183 90.185997
18 90.185997 -0.000179 -0.000060 89.793228 -1.359877 -0.847183 90.185997
[R_rear_hand01]
17 103.366196 -6.073594 -10.757982 -177.714203 24.565960 -73.910950 104.101845
18 103.366196 -6.073594 -10.757982 -177.714203 24.565960 -73.910950 104.101845
[R_rear_hand02]
17 100.509819 12.039542 -7.992327 -12.874829 36.868488 72.167213 101.543350
18 100.509819 12.039542 -7.992327 -12.874829 36.868488 72.167213 101.543350
[R_rear_hand03]
17 101.539970 5.215704 5.435467 71.484581 -71.816628 21.513813 101.819031
18 101.539970 5.215704 5.435467 71.484581 -71.816628 21.513813 101.819031
[Rope4_Seg01]
17 0.000014 -0.000038 -0.000358 53.829357 -11.869842 -139.410934 0.000360
18 0.000013 -0.000038 -0.000342 59.901817 -19.789968 -138.158890 0.000344
[Rope4_Seg02]
17 139.999985 0.000060 0.000119 -12.956734 -0.543396 -15.675196 139.999985
18 139.999985 0.000060 0.000119 -12.615341 -0.208754 -15.256438 139.999985
[Rope4_Seg03]
17 139.999924 0.000000 -0.000238 -12.774874 2.179360 -12.430218 139.999924
18 139.999924 0.000000 -0.000238 -13.444136 3.458722 -13.021477 139.999924
[Rope4_Seg04]
17 139.999985 0.000000 0.000119 -10.391095 3.729644 -9.125911 139.999985
18 139.999985 0.000000 0.000119 -18.265171 7.626814 -16.805996 139.999985
[Rope4_Seg05]
17 139.999802 -0.000060 -0.000119 -23.993572 14.815338 -21.632198 139.999802
18 139.999802 -0.000060 -0.000119 -25.145849 18.018486 -25.837399 139.999802
[Rope4_Seg06]
17 139.999924 0.000000 0.000060 -10.902381 17.081882 -11.432858 139.999924
18 139.999924 0.000000 0.000060 -5.301101 10.316678 -6.649301 139.999924
[Rope4_Seg07]
17 139.999802 0.000000 0.000000 -2.281925 7.344574 -3.287837 139.999802
18 139.999802 0.000000 0.000000 -1.489325 4.725881 -2.416313 139.999802
[Rope4_Seg08]
17 139.999924 0.000000 0.000119 -2.394633 3.961533 -1.595825 139.999924
18 139.999924 0.000000 0.000119 -2.178663 2.590163 -1.244997 139.999924
[Rope4_Seg09]
17 90.185791 0.000060 0.000060 -135.617828 2.228885 0.850567 90.185791
18 90.185791 0.000060 0.000060 -135.617828 2.228885 0.850567 90.185791
[L_rear_hand01]
17 101.696655 -8.392275 -7.654577 -12.874829 -36.868488 107.832764 102.329041
18 101.696655 -8.392275 -7.654577 -12.874829 -36.868488 107.832764 102.329041
[L_rear_hand02]
17 102.726799 -1.568258 5.773216 71.484581 71.816628 158.486160 102.900848
18 102.726799 -1.568258 5.773216 71.484581 71.816628 158.486160 102.900848
[L_rear_hand03]
17 104.552910 9.721220 -10.420293 -177.714203 -24.565960 -106.089035 105.519653
18 104.552910 9.721220 -10.420293 -177.714203 -24.565960 -106.089035 105.519653
